<svg width="100" height="100" fill="none" xmlns="http://www.w3.org/2000/svg"><path fill="#141414" d="M0 0h100v100H0z"/><path d="M45.046 34.79c3.093 0 5.456.842 7.089 2.526 1.633 1.649 2.45 4.333 2.45 8.052V64.21h-9.279V47.843c0-2.105-.277-3.631-.833-4.579-.556-.982-1.373-1.474-2.45-1.474-1.53 0-2.589.737-3.18 2.211-.59 1.439-.886 3.509-.886 6.21v14h-9.33V47.843c0-1.368-.121-2.491-.365-3.368-.208-.913-.556-1.58-1.042-2-.452-.456-1.043-.684-1.772-.684-1.078 0-1.912.368-2.502 1.105-.59.701-1.008 1.737-1.251 3.105-.209 1.368-.313 3.053-.313 5.053V64.21H12V35.316h7.089l1.355 3.631h.26c.487-.912 1.095-1.666 1.825-2.263.764-.631 1.668-1.105 2.71-1.42 1.043-.317 2.241-.475 3.597-.475 1.98 0 3.614.351 4.9 1.053 1.32.702 2.362 1.72 3.127 3.053h.312c.87-1.369 1.981-2.386 3.336-3.053 1.355-.702 2.867-1.053 4.535-1.053ZM57.735 35.316h9.8l4.482 16.368c.14.386.243.807.313 1.263.07.456.121.93.156 1.421.035.457.07.948.104 1.474h.209c.07-.772.139-1.509.208-2.21.105-.702.244-1.351.417-1.948l4.64-16.368h9.59L76.76 67c-.73 2.175-1.633 3.983-2.71 5.421a10.119 10.119 0 0 1-4.066 3.316c-1.598.737-3.596 1.105-5.994 1.105-.834 0-1.564-.052-2.189-.158-.59-.07-1.13-.158-1.616-.263v-7c.348.07.765.14 1.251.21a12.1 12.1 0 0 0 1.616.106c1.042 0 1.894-.21 2.554-.632.66-.42 1.181-1 1.564-1.737a9.21 9.21 0 0 0 .938-2.42l.26-1.053-10.633-28.58ZM67.821 27.79c0-2.093 1.68-3.79 3.753-3.79h2.294c2.072 0 3.752 1.697 3.752 3.79v.631c0 2.093-1.68 3.79-3.752 3.79h-2.294c-2.073 0-3.753-1.697-3.753-3.79v-.631Z" fill="#5070DC"/></svg>